<?xml version="1.0" standalone="no"?>
<!DOCTYPE svg PUBLIC "-//W3C//DTD SVG 20010904//EN"
 "http://www.w3.org/TR/2001/REC-SVG-20010904/DTD/svg10.dtd">
<svg version="1.0" xmlns="http://www.w3.org/2000/svg"
 width="577.782074pt" height="404.818923pt" viewBox="0 0 577.782074 404.818923"
 preserveAspectRatio="xMidYMid meet">
<metadata>
Created by potrace 1.12, written by Peter Selinger 2001-2015
</metadata>
<g transform="translate(-2.202783,414.897528) scale(0.100000,-0.100000)"
fill="#000000" stroke="none">
<path d="M3510 4128 c-59 -139 -178 -503 -214 -653 -45 -187 -48 -196 -70
-210 -12 -7 -46 -16 -76 -20 -98 -13 -289 -98 -397 -177 -121 -88 -225 -229
-333 -450 -122 -248 -176 -451 -197 -726 -4 -62 -10 -85 -22 -92 -9 -5 -64
-18 -121 -29 -120 -23 -276 -55 -370 -76 -36 -8 -110 -24 -165 -35 -198 -42
-422 -94 -775 -179 -113 -27 -277 -66 -365 -86 -322 -76 -379 -91 -383 -103
-5 -17 61 -15 128 4 30 9 107 29 170 45 63 16 140 35 170 44 48 12 316 76 640
151 58 14 281 62 495 109 215 46 434 94 487 106 54 13 100 20 104 17 3 -4 14
-50 24 -103 25 -125 72 -222 148 -305 104 -114 245 -179 384 -180 45 0 80 -5
84 -11 3 -6 2 -28 -4 -48 -7 -20 -25 -92 -42 -161 -36 -144 -113 -387 -163
-510 -70 -172 -110 -248 -161 -307 -11 -13 -17 -26 -13 -29 32 -32 242 408
304 636 14 52 43 160 65 240 21 80 42 158 46 174 6 25 19 34 82 61 151 63 300
186 400 328 34 49 41 54 135 88 121 43 569 270 608 306 45 44 35 74 -39 119
-14 9 -16 15 -8 24 9 9 430 77 694 110 72 10 388 54 460 65 19 3 94 15 165 26
72 11 156 24 187 29 31 4 82 14 113 21 46 10 61 10 77 0 24 -15 38 -2 38 37 0
28 -16 28 -89 2 -31 -11 -195 -41 -366 -66 -423 -64 -473 -71 -605 -89 -115
-15 -194 -26 -435 -64 -407 -63 -768 -112 -775 -105 -5 5 -1 65 8 134 11 88
16 207 16 405 1 399 -22 500 -141 604 -61 53 -63 65 -29 148 13 32 35 105 49
163 13 58 38 152 55 210 57 199 83 370 63 408 -15 28 -29 28 -41 0z m0 -217
c-12 -53 -39 -161 -61 -241 -22 -80 -49 -179 -60 -220 -27 -100 -51 -172 -62
-187 -13 -18 -36 -16 -43 2 -13 32 114 507 154 581 6 10 20 48 32 84 11 36 28
77 37 90 16 23 18 23 21 6 2 -10 -6 -62 -18 -115z m-283 -725 c-3 -12 -21 -89
-40 -172 -34 -144 -52 -272 -77 -539 -24 -264 -64 -485 -93 -511 -6 -6 -73
-21 -147 -34 -171 -28 -140 -22 -387 -74 -117 -24 -215 -41 -218 -38 -20 20 6
296 39 401 7 25 21 73 31 106 58 205 199 478 316 609 50 56 157 139 170 131 4
-3 13 4 19 15 6 11 21 20 34 20 13 0 40 13 60 29 60 48 122 73 199 80 87 8
100 5 94 -23z m80 -1 c3 -9 1 -35 -5 -58 -35 -138 -46 -180 -62 -252 -18 -81
-56 -228 -66 -255 -5 -12 -8 -10 -15 7 -8 23 21 254 41 323 6 19 20 80 31 135
12 55 23 103 26 108 8 13 43 7 50 -8z m95 -8 c45 -42 76 -100 97 -178 24 -95
46 -399 37 -524 -12 -163 -19 -215 -28 -215 -6 0 -23 10 -40 21 -21 16 -46 22
-87 23 -34 1 -65 7 -75 16 -16 12 -19 12 -26 0 -41 -71 -156 -220 -164 -213
-24 24 27 329 96 573 14 47 33 121 43 165 23 103 74 302 86 332 11 29 29 29
61 0z m-30 -989 c-11 -29 -28 -79 -37 -111 -23 -84 -40 -70 -39 30 1 104 9
129 42 147 23 12 29 12 41 1 12 -12 11 -21 -7 -67z m98 52 c17 -17 20 -33 20
-99 0 -87 -14 -115 -54 -109 -20 3 -21 9 -21 108 0 58 1 108 3 113 6 13 32 7
52 -13z m-196 -63 c-3 -136 -5 -148 -24 -167 -24 -24 -46 -26 -54 -5 -6 16 26
152 44 185 15 28 35 20 34 -13z m-84 -68 c0 -32 -34 -120 -49 -129 -23 -12
-31 -4 -31 32 0 31 13 62 38 91 17 19 42 23 42 6z m186 -75 c-3 -9 -10 -12
-16 -9 -14 9 -13 48 3 64 10 10 13 7 15 -14 2 -15 1 -33 -2 -41z m679 3 c90
-51 58 -81 -256 -240 -217 -111 -333 -157 -350 -140 -4 4 1 34 12 65 17 51 38
147 54 250 3 20 12 39 20 42 14 5 193 32 265 39 19 2 76 4 125 5 77 1 96 -2
130 -21z m-602 -77 c-3 -52 -16 -111 -25 -117 -16 -9 -28 19 -28 69 0 62 8 80
34 76 15 -2 21 -9 19 -28z m-83 -63 c6 -77 25 -117 57 -117 34 0 -5 -126 -49
-153 -31 -20 -148 -37 -189 -28 -82 19 -152 73 -166 130 -7 29 14 170 29 188
16 20 28 5 28 -36 0 -37 28 -79 37 -56 2 6 16 35 31 65 26 53 29 55 70 58 25
2 42 -1 42 -7 0 -18 21 -12 52 14 17 14 36 24 42 22 6 -2 13 -37 16 -80z
m-365 13 c4 -6 2 -25 -3 -43 -6 -17 -15 -72 -22 -122 -6 -49 -20 -128 -31
-175 -10 -47 -28 -132 -39 -190 -34 -174 -30 -167 -107 -176 -137 -14 -316 74
-417 204 -59 78 -83 128 -106 224 -23 97 -25 132 -7 146 7 6 138 36 292 66
154 30 300 59 325 64 62 13 108 14 115 2z m55 -280 c67 -45 132 -62 211 -54
85 8 92 -3 43 -64 -93 -115 -200 -201 -316 -255 -78 -37 -92 -36 -84 6 4 17
11 64 17 102 21 134 64 295 79 295 3 0 25 -14 50 -30z"/>
<path d="M2391 959 c-20 -53 -42 -285 -42 -437 0 -216 21 -355 60 -404 27 -33
37 -15 13 24 -26 42 -41 124 -49 268 -7 132 13 442 32 505 14 49 3 87 -14 44z"/>
</g>
</svg>
